<svg version="1" xmlns="http://www.w3.org/2000/svg" width="2133.333" height="2133.333" viewBox="0 0 1600.000000 1600.000000"><path d="M0 621.2v272.3L77 816c42.3-42.6 77-77.6 77-77.7 0-.1 1.1-1.3 2.5-2.7 1.4-1.4 2.5-2.4 2.5-2.3 0 .1 6.4-6.1 14.3-13.8 7.8-7.7 15.8-15.4 17.7-17 9.9-8.5 33.3-24.5 35.8-24.5.6 0 1.2-.4 1.4-.8.3-.8 11.2-6.3 12.5-6.3.4 0 1.7-.6 2.8-1.3 7.2-4.7 36.5-12.2 51.2-13.1 2.9-.2 5.7-.6 6.2-.9.5-.4 1.3-.2 1.6.4.5.8 1.1.8 2 0 .9-.8 1.5-.8 2 0 .3.6 1.2.7 1.8.3 1.3-.8 8.7-1.1 8.7-.3 0 .3 2.1.5 4.8.5 2.6 0 5.1.2 5.7.4.5.3 2.1.6 3.5.6 1.4.1 3.9.5 5.5.9 2.9.6 4.7 1 9.8 2.1 7.2 1.5 22.9 7.4 33.7 12.7 11.7 5.7 26.1 14.3 26.8 16 .2.5.8.8 1.3.8 2.2 0 21.3 16.4 37.6 32.3l7.1 7 32.4-32.6c91.5-92.3 89.8-90.6 101.8-100.1 11.1-8.8 10.9-8.7 15.5-11.7 2.2-1.4 6.5-4.1 9.5-6.1 8.3-5.3 35-17.7 35-16.1 0 .3.6.1 1.3-.5.6-.5 2.8-1.3 4.7-1.8 1.9-.4 4-.9 4.5-1 16.1-4.4 27.1-5.8 43-5.7 13.4 0 23.9 1.3 35.5 4.3 2.5.6 5.1 1.2 5.8 1.2.6.1 1.2.4 1.2.8 0 .3.9.6 2 .7 5.6.4 29.2 10.9 41 18.1 1.9 1.2 4.5 2.6 5.8 3.2 1.2.5 2.2 1.3 2.2 1.7 0 .5 1.2 1.4 2.8 2.1 1.5.7 4.4 2.7 6.4 4.5 2 1.7 5.7 4.7 8.1 6.5 6 4.4 8.3 6.5 21.4 19.4l11.1 11 31.7-31.9c17.4-17.5 43.6-43.9 58.3-58.7 30.5-30.6 45.4-44.4 52.8-48.8 1.9-1.1 3.4-2.3 3.4-2.8 0-.4 1.4-1.3 3-2s3-1.6 3-2c0-.5 1.4-1.3 3-1.9 1.6-.5 3-1.5 3-2.1 0-.6.4-.9.9-.5.5.3 1.3.1 1.6-.5.4-.6 6.1-3.7 12.8-6.9 11.1-5.4 13.7-6.5 15.9-7 .4-.1 3.7-1.3 7.3-2.6 3.6-1.4 6.5-2.2 6.5-2 0 .3 1 .1 2.1-.6 1.2-.6 3.4-1.2 4.8-1.4 1.4-.1 5.1-.8 8.1-1.4 18.3-3.6 37.4-3.5 60 .4 8.2 1.5 30 8.6 32.8 10.8.6.5 1.2.7 1.2.4 0-1.2 23.9 11.9 25.2 13.8.4.5.8.7.8.2 0-.6 13.4 8.5 15 10.3.3.3 2.5 2.1 5 4s6.8 5.5 9.5 7.9c4.6 4.2 117.2 116.9 133.6 133.7 3.8 4 6.9 6.9 6.9 6.5 0-.3.4.1.9.9.6.8 30.7 31.4 67 68s69.2 69.7 73 73.6c3.9 3.9 7.3 6.9 7.6 6.6.3-.3.5-.1.5.5 0 .5 22 23.2 49 50.3 26.9 27.1 49.1 49.8 49.4 50.4.2.6.5-121.4.5-271.2l.1-272.2H0v272.2z"/><path d="M1084.8 553.5c-.1.2-2.3.6-4.8 1-2.4.4-5.1 1-6 1.5-.8.4-2.6 1-4 1.1-1.4.2-2.7.6-3 .9-.3.3-3.2 1.9-6.5 3.5s-6.4 3.2-7 3.7c-.5.4-4.1 3.1-8 5.9-5.3 3.9-122 119.5-128.4 127.2-.9 1.2 6.6 9.3 42 44.8 23.7 23.9 44.4 44.9 46 46.7 1.6 1.8 2.9 2.9 2.9 2.5 0-.4.4-.2.8.4.7 1.1 54.6 55.6 199.4 201.4 42.9 43.1 46.2 46.1 49.9 43.8.7-.4 1.7-.5 2.1-.3.8.5 20.1.8 22.3.4.6-.2 1.5-.1 2 0 1.4.2 20.8.2 22 0 .6-.1 1.5-.2 2-.1 1.4.3 20.9.3 22 .1.6-.2 1.5-.1 2 0 1.4.2 20.8.2 22 0 .6-.1 1.5-.2 2-.1 1.4.3 20.9.3 22 .1.6-.2 1.5-.1 2 0 1.4.2 20.8.2 22 0 .6-.1 1.5-.2 2-.1 1.4.3 20.9.3 22 .1.6-.2 1.5-.1 2 0 1.4.2 20.8.2 22 0 .6-.1 1.5-.2 2-.1 1.4.3 20.9.3 22 .1.6-.2 1.5-.1 2 0 1.4.2 20.8.2 22 0 .6-.1 1.5-.2 2-.1 1.4.3 20.9.3 22 .1.6-.2 1.5-.1 2 0 1.4.2 20.8.2 22 0 .6-.1 1.5-.2 2-.1 1.4.3 20.9.3 22 .1.6-.2 1.5-.2 2 0 3.2.6 21.5.4 21.5-.3 0-.4.8-.3 1.8.2s2.4.6 3.2.1c1.4-.9 2.2 0-118.5-121.5-33.4-33.6-99.8-100.4-147.5-148.5-47.8-48.1-109.3-110.1-136.7-137.6-27.4-27.6-51.6-51.7-53.9-53.5-6.5-5.4-11.6-9.3-13.4-10.4-2.8-1.6-14.5-7.9-15-8-.3-.1-3.6-1.1-7.5-2.3-6-1.9-20.7-3.7-21.7-2.7zM691 656c-.8.4-3.2 1.1-5.3 1.4-2.1.3-5 1.2-6.5 2-1.5.7-3.9 1.6-5.4 2-1.6.3-2.8 1.1-2.8 1.7 0 .6-.4.8-.9.5-.7-.5-13 7.1-18.7 11.5-3.3 2.6-126.4 126-126.4 126.8 0 .4 1 1.7 2.3 2.8 1.2 1.1 43.8 43.9 94.7 95.2 147.1 148.2 137.9 139.2 140 138.1.9-.5 2-.7 2.3-.4.5.5 19.9.8 22.2.4.6-.2 1.5-.1 2 0 1.4.2 20.8.2 22 0 .6-.1 1.5-.2 2-.1 1.4.3 20.9.3 22 .1.6-.2 1.5-.1 2 0 1.4.2 20.8.2 22 0 .6-.1 1.5-.2 2-.1 1.4.3 20.9.3 22 .1.6-.2 1.5-.1 2 0 1.4.2 20.8.2 22 0 .6-.1 1.5-.2 2-.1 1.4.3 20.9.3 22 .1.6-.2 1.5-.1 2 0 1.4.2 20.8.2 22 0 .6-.1 1.5-.2 2-.1 1.4.3 20.9.3 22 .1.6-.2 1.5-.1 2 0 1.4.2 20.8.2 22 0 .6-.1 1.5-.2 2-.1 1.4.2 37 .2 38.1 0 .5-.1 1.4 0 1.9.1 1.4.2 20.8.2 22 0 .6-.1 1.5-.2 2-.1 1.4.3 20.9.3 22 .1.6-.2 1.5-.1 2 0 2.6.5 13.6.2 14.2-.4.4-.4-4-5.3-9.8-11.1-5.7-5.7-45.7-46-88.9-89.5-107.6-108.4-104-104.8-104-104.3 0 .3-1.1-.9-2.4-2.4-2.3-2.7-54.8-55.8-119.6-120.9-14.6-14.6-28.5-28.2-30.9-30.2-2.4-2.1-5-4.3-5.7-5-3-2.9-18.2-11.6-24.3-13.9-7.7-2.9-9-3.2-15.1-3.8-2.5-.2-4.7-.5-5-.6-1.5-.5-3.7-.4-5.1.3-.9.4-2 .3-2.5-.2s-1.6-.5-2.4 0zM297 759.1c-8.3 2.2-11.9 3.5-18.5 6.7-3.8 1.9-7.3 4-7.7 4.6-.4.6-.8.7-.8.1s-.3-.6-.8.1c-.4.6-1.4 1.5-2.3 2-.9.5-3.6 2.4-6 4.3-6.3 5-259.9 259.5-259.9 260.9 0 .8 15.4.7 17.4-.1.8-.3 1.7-.3 2 0 .5.6 19.8.8 22.1.3.6-.1 1.5-.2 2-.1 1.4.3 20.9.3 22 .1.6-.2 1.5-.1 2 0 1.4.2 20.8.2 22 0 .6-.1 1.5-.2 2-.1 1.4.3 20.9.3 22 .1.6-.2 1.5-.1 2 0 1.4.2 20.8.2 22 0 .6-.1 1.5-.2 2-.1 1.4.3 20.9.3 22 .1.6-.2 1.5-.1 2 0 1.4.2 20.8.2 22 0 .6-.1 1.5-.2 2-.1 1.4.3 20.9.3 22 .1.6-.2 1.5-.1 2 0 1.4.2 20.8.2 22 0 .6-.1 1.5-.2 2-.1 1.4.3 20.9.3 22 .1.6-.2 1.5-.1 2 0 1.4.2 20.8.2 22 0 .6-.1 1.5-.2 2-.1 1.4.3 20.9.3 22 .1.6-.2 1.5-.1 2 0 1.4.2 20.8.2 22 0 .6-.1 1.5-.2 2-.1 1.4.3 20.9.3 22 .1.6-.2 1.5-.1 2 0 1.4.2 20.8.2 22 0 .6-.1 1.5-.2 2-.1 1.4.3 20.9.3 22 .1.6-.2 1.5-.1 2 0 1.4.2 20.8.2 22 0 .6-.1 1.5-.2 2-.1 1.4.3 20.9.3 22 .1.6-.2 1.5-.1 2 0 1.4.2 20.8.2 22 0 .6-.1 1.5-.2 2-.1 1.4.3 20.9.3 22 .1.6-.2 1.5-.1 2 0 1.4.2 20.8.2 22 0 .6-.1 1.5-.2 2-.1 1.4.3 20.9.3 22 .1.6-.2 1.5-.1 2 0 1.4.2 20.8.2 22 0 .6-.1 1.5-.2 2-.1 1.4.3 20.9.3 22 .1.6-.2 1.2-.1 1.5 0 .5.2 10 .2 16 .1l3.5-.1-3.5-3.4c-1.9-1.9-35.6-35.7-74.7-75.3-120-120.9-175.6-176.7-180.1-180.3-6.9-5.5-15.2-10.8-21.7-13.9-5.5-2.6-11-4.7-11-4.2 0 .1-1.3-.3-3-.9-3.8-1.5-19.9-2.1-24.5-.9zM0 1195.7v55.3h1600V1140.3H0v55.4z"/></svg>