<?xml version="1.0" encoding="utf-8"?>
<!-- Generator: Adobe Illustrator 22.0.1, SVG Export Plug-In . SVG Version: 6.00 Build 0)  -->
<svg version="1.1" id="Layer_1" xmlns="http://www.w3.org/2000/svg" xmlns:xlink="http://www.w3.org/1999/xlink" x="0px" y="0px"
	 viewBox="0 0 97.2 104.9" style="enable-background:new 0 0 97.2 104.9;" xml:space="preserve">
<g>
	<path fill="#37ddd1" d="M48.5,25.3c-15.1,0-27.4,12.3-27.4,27.4c0,7.8,3.2,15.1,9,20.2V94h36.8V72.9c5.7-5.2,9-12.5,9-20.2
		C75.9,37.6,63.6,25.3,48.5,25.3z M60.9,88H36.1v-5.6h24.8V88z M62,69.3l-1.1,0.9v6.3H36.1v-6.3L35,69.3c-5-4.1-7.9-10.1-7.9-16.6
		c0-11.8,9.6-21.4,21.4-21.4c11.8,0,21.4,9.6,21.4,21.4C69.9,59.1,67,65.2,62,69.3z"/>
	<g>
		<rect fill="#37ddd1" x="45.5" width="6" height="19.3"/>
		<rect fill="#37ddd1" x="22.3" y="6" transform="matrix(0.866 -0.5 0.5 0.866 -4.4259 14.7337)" width="6" height="19.3"/>
		<rect fill="#37ddd1" x="62.2" y="12.6" transform="matrix(0.5 -0.866 0.866 0.5 22.3961 70.0428)" width="19.3" height="6"/>
		<rect fill="#37ddd1" x="6.9" y="20.7" transform="matrix(0.5 -0.866 0.866 0.5 -21.3894 23.7481)" width="6" height="19.3"/>
		<rect fill="#37ddd1" x="77.7" y="27.4" transform="matrix(0.866 -0.5 0.5 0.866 -3.4989 47.7371)" width="19.3" height="6"/>
	</g>
	<rect fill="#37ddd1" x="41.1" y="97.9" width="14.8" height="7"/>
</g>
</svg>
