
<svg width="493px" height="109px" viewBox="0 0 493 109" version="1.1" xmlns="http://www.w3.org/2000/svg" xmlns:xlink="http://www.w3.org/1999/xlink">
    <!-- Generator: Sketch 48.2 (47327) - http://www.bohemiancoding.com/sketch -->
    <desc>Created with Sketch.</desc>
    <defs>
        <linearGradient x1="17.1504146%" y1="-38.798342%" x2="82.8495174%" y2="138.797791%" id="linearGradient-1">
            <stop stop-color="#D39000" offset="0%"></stop>
            <stop stop-color="#F5D29F" offset="43.77%"></stop>
            <stop stop-color="#F2CE95" offset="45.1%"></stop>
            <stop stop-color="#EABD6D" offset="50.73%"></stop>
            <stop stop-color="#E3AF4C" offset="56.75%"></stop>
            <stop stop-color="#DDA430" offset="63.14%"></stop>
            <stop stop-color="#D89B1B" offset="70.02%"></stop>
            <stop stop-color="#D5950C" offset="77.64%"></stop>
            <stop stop-color="#D39103" offset="86.56%"></stop>
            <stop stop-color="#D39000" offset="100%"></stop>
        </linearGradient>
    </defs>
    <g id="Page-1" stroke="none" stroke-width="1" fill="none" fill-rule="evenodd">
        <g id="TEF-Gold-logo-words" fill-rule="nonzero">
            <path d="M280.896,108.846 L14.865,108.846 C7.106,108.846 0.817,102.556 0.817,94.798 L0.817,14.086 C0.817,6.327 7.107,0.038 14.865,0.038 L280.896,0.038 C288.655,0.038 294.944,6.328 294.944,14.086 L294.944,94.798 C294.944,102.556 288.655,108.846 280.896,108.846 Z" id="Shape" fill="#FFFFFF"></path>
            <path d="M280.896,108.846 L14.865,108.846 C7.106,108.846 0.817,102.556 0.817,94.798 L0.817,14.086 C0.817,6.327 7.107,0.038 14.865,0.038 L280.896,0.038 C288.655,0.038 294.944,6.328 294.944,14.086 L294.944,94.798 C294.944,102.556 288.655,108.846 280.896,108.846 Z" id="Shape" fill="url(#linearGradient-1)"></path>
            <g id="Group" transform="translate(11.000000, 10.000000)">
                <path d="M123.387,88.625 L7.929,88.625 C3.66,88.625 0.2,85.164 0.2,80.896 L0.2,7.987 C0.2,3.718 3.661,0.258 7.929,0.258 L123.386,0.258 C127.655,0.258 131.115,3.719 131.115,7.987 L131.115,80.896 C131.116,85.165 127.655,88.625 123.387,88.625 Z" id="Shape" fill="#FFFFFF"></path>
                <g transform="translate(14.000000, 17.000000)" fill="#D29E0E" id="Shape">
                    <path d="M33.606,8.865 L22.183,8.865 L22.183,48.485 C22.183,49.203 21.595,49.791 20.877,49.791 L14.415,49.791 C13.697,49.791 13.11,49.204 13.11,48.485 L13.11,8.865 L1.688,8.865 C0.97,8.865 0.382,8.408 0.382,7.69 L0.382,2.534 C0.382,1.816 0.97,1.294 1.688,1.294 L33.606,1.294 C34.324,1.294 34.912,1.816 34.912,2.534 L34.912,7.69 C34.911,8.408 34.324,8.865 33.606,8.865 Z"></path>
                    <path d="M64.799,49.399 C62.71,49.726 60.165,50.313 52.397,50.313 C43.912,50.313 37.319,48.028 37.319,36.932 L37.319,14.152 C37.319,3.056 43.912,0.771 52.397,0.771 C60.165,0.771 62.71,1.359 64.799,1.685 C65.778,1.816 66.104,2.142 66.104,3.056 L66.104,7.233 C66.104,7.951 65.516,8.539 64.799,8.539 L51.483,8.539 C47.697,8.539 46.326,9.844 46.326,14.152 L46.326,21.202 L64.015,21.202 C64.733,21.202 65.32,21.789 65.32,22.507 L65.32,27.207 C65.32,27.925 64.733,28.512 64.015,28.512 L46.326,28.512 L46.326,36.933 C46.326,41.241 47.697,42.546 51.483,42.546 L64.799,42.546 C65.517,42.546 66.104,43.134 66.104,43.852 L66.104,48.029 C66.104,48.942 65.778,49.268 64.799,49.399 Z"></path>
                    <path d="M99.917,8.538 L86.602,8.538 C82.816,8.538 81.445,9.843 81.445,14.151 L81.445,21.201 L99.134,21.201 C99.852,21.201 100.439,21.788 100.439,22.506 L100.439,27.206 C100.439,27.924 99.852,28.511 99.134,28.511 L81.445,28.511 L81.445,48.484 C81.445,49.202 80.858,49.79 80.14,49.79 L73.743,49.79 C73.025,49.79 72.438,49.203 72.438,48.484 L72.438,14.151 C72.438,3.055 79.03,0.77 87.516,0.77 C95.284,0.77 97.829,1.358 99.918,1.684 C100.897,1.815 101.224,2.141 101.224,3.055 L101.224,7.232 C101.223,7.951 100.635,8.538 99.917,8.538 Z"></path>
                </g>
                <g transform="translate(154.000000, 23.000000)" fill="#FFFFFF" id="Shape">
                    <path d="M25.546,39.407 C22.957,39.925 19.59,40.287 14.255,40.287 C8.662,40.287 0.375,36.61 0.375,24.387 L0.375,16.929 C0.375,4.654 8.247,0.977 14.411,0.977 C19.383,0.977 23.837,1.598 25.546,1.909 C26.219,2.064 26.53,2.323 26.53,2.997 L26.53,6.467 C26.53,7.192 26.323,7.555 25.494,7.555 C25.443,7.555 25.391,7.555 25.339,7.555 C22.957,7.348 19.383,7.141 14.411,7.141 C10.94,7.141 7.626,9.575 7.626,16.93 L7.626,24.388 C7.626,31.743 11.2,34.125 14.256,34.125 C16.173,34.125 17.778,34.073 19.384,33.97 L19.384,20.763 C19.384,20.193 19.798,19.727 20.368,19.727 L25.495,19.727 C26.065,19.727 26.531,20.193 26.531,20.763 L26.531,38.166 C26.531,38.838 26.22,39.252 25.546,39.407 Z"></path>
                    <path d="M45.282,40.288 C37.151,40.288 32.903,34.798 32.903,27.391 L32.903,23.196 C32.903,15.79 37.15,10.3 45.282,10.3 C53.414,10.3 57.661,15.79 57.661,23.196 L57.661,27.391 C57.661,34.798 53.414,40.288 45.282,40.288 Z M50.824,23.196 C50.824,18.949 48.907,16.204 45.282,16.204 C41.656,16.204 39.74,18.949 39.74,23.196 L39.74,27.391 C39.74,31.638 41.656,34.383 45.282,34.383 C48.907,34.383 50.824,31.638 50.824,27.391 L50.824,23.196 Z"></path>
                    <path d="M69.627,39.873 L64.81,39.873 C64.24,39.873 63.774,39.355 63.774,38.785 L63.774,1.494 C63.774,0.924 64.24,0.458 64.81,0.458 L69.627,0.458 C70.197,0.458 70.611,0.924 70.611,1.494 L70.611,38.785 C70.612,39.355 70.197,39.873 69.627,39.873 Z"></path>
                    <path d="M99.357,38.941 C96.146,39.77 92.261,40.288 88.947,40.288 C80.609,40.288 76.568,35.367 76.568,27.288 L76.568,23.3 C76.568,15.22 80.608,10.3 88.947,10.3 C90.19,10.3 92.003,10.404 93.919,10.662 L93.919,1.495 C93.919,0.925 94.385,0.459 94.955,0.459 L99.72,0.459 C100.289,0.459 100.756,0.925 100.756,1.495 L100.756,37.543 C100.755,38.319 100.548,38.631 99.357,38.941 Z M93.919,16.256 C92.469,16.049 90.19,15.893 88.947,15.893 C84.493,15.893 83.406,19.052 83.406,23.299 L83.406,27.287 C83.406,31.534 84.494,34.693 88.947,34.693 C90.812,34.693 92.935,34.538 93.919,34.331 L93.919,16.256 Z"></path>
                </g>
            </g>
            <g id="Group" transform="translate(309.000000, 1.000000)" fill="#D29E0E">
                <path d="M18.013,5.07 L12.037,5.07 L12.037,25.799 C12.037,26.175 11.729,26.482 11.353,26.482 L7.972,26.482 C7.597,26.482 7.289,26.175 7.289,25.799 L7.289,5.07 L1.313,5.07 C0.937,5.07 0.629,4.831 0.629,4.455 L0.629,1.757 C0.629,1.382 0.937,1.108 1.313,1.108 L18.011,1.108 C18.387,1.108 18.695,1.381 18.695,1.757 L18.695,4.455 C18.696,4.831 18.389,5.07 18.013,5.07 Z" id="Shape"></path>
                <path d="M35.288,18.422 L24.155,18.422 L24.155,18.525 C24.155,20.505 24.975,22.862 28.254,22.862 C30.746,22.862 33.103,22.657 34.537,22.52 C34.571,22.52 34.605,22.52 34.64,22.52 C34.981,22.52 35.254,22.691 35.254,23.032 L35.254,25.286 C35.254,25.832 35.151,26.072 34.537,26.174 C32.317,26.584 30.985,26.755 27.912,26.755 C24.497,26.755 19.648,24.911 19.648,18.183 L19.648,15.656 C19.648,10.329 22.619,6.982 27.843,6.982 C33.102,6.982 35.971,10.567 35.971,15.656 L35.971,17.568 C35.972,18.115 35.767,18.422 35.288,18.422 Z M31.43,15.076 C31.43,12.412 29.961,10.876 27.844,10.876 C25.727,10.876 24.19,12.378 24.19,15.076 L24.19,15.213 L31.43,15.213 L31.43,15.076 Z" id="Shape"></path>
                <path d="M54.273,26.481 L51.37,26.481 C50.995,26.481 50.687,26.174 50.687,25.798 L50.687,25.252 C49.116,26.208 47.511,26.755 45.872,26.755 C43.038,26.755 39.965,25.662 39.965,21.052 L39.965,20.915 C39.965,17.022 42.355,15.007 48.297,15.007 L50.448,15.007 L50.448,13.505 C50.448,11.285 49.458,10.739 47.443,10.739 C45.257,10.739 43.004,10.876 41.877,11.012 C41.809,11.012 41.74,11.012 41.706,11.012 C41.364,11.012 41.092,10.909 41.092,10.431 L41.092,8.245 C41.092,7.87 41.296,7.63 41.74,7.528 C43.106,7.255 45.087,6.982 47.443,6.982 C52.292,6.982 54.956,9.133 54.956,13.504 L54.956,25.797 C54.956,26.174 54.648,26.481 54.273,26.481 Z M50.448,18.013 L48.297,18.013 C45.19,18.013 44.506,19.003 44.506,20.915 L44.506,21.052 C44.506,22.725 45.258,23.169 46.965,23.169 C48.194,23.169 49.458,22.759 50.448,22.213 L50.448,18.013 Z" id="Shape"></path>
                <path d="M71.755,26.311 C70.97,26.516 69.434,26.755 67.35,26.755 C62.912,26.755 59.565,24.023 59.565,18.457 L59.565,15.281 C59.565,9.715 62.912,6.983 67.35,6.983 C69.434,6.983 70.97,7.222 71.755,7.427 C72.336,7.564 72.473,7.768 72.473,8.315 L72.473,10.535 C72.473,10.877 72.2,11.047 71.858,11.047 C71.824,11.047 71.79,11.047 71.755,11.047 C70.39,10.877 69.569,10.808 67.35,10.808 C65.746,10.808 64.072,11.73 64.072,15.281 L64.072,18.457 C64.072,22.008 65.746,22.93 67.35,22.93 C69.57,22.93 70.39,22.862 71.755,22.691 C71.789,22.691 71.823,22.691 71.858,22.691 C72.2,22.691 72.473,22.862 72.473,23.203 L72.473,25.423 C72.473,25.969 72.336,26.174 71.755,26.311 Z" id="Shape"></path>
                <path d="M92.175,26.481 L89.033,26.481 C88.657,26.481 88.35,26.14 88.35,25.764 L88.35,14.529 C88.35,11.558 87.837,10.807 85.549,10.807 C84.388,10.807 83.023,11.217 81.588,11.968 L81.588,25.764 C81.588,26.14 81.28,26.481 80.904,26.481 L77.762,26.481 C77.387,26.481 77.079,26.14 77.079,25.764 L77.079,1.177 C77.079,0.802 77.387,0.494 77.762,0.494 L80.904,0.494 C81.28,0.494 81.588,0.801 81.588,1.177 L81.588,8.246 C82.886,7.461 84.319,6.983 86.744,6.983 C91.457,6.983 92.857,10.33 92.857,14.53 L92.857,25.765 C92.858,26.14 92.551,26.481 92.175,26.481 Z" id="Shape"></path>
                <path d="M102.178,4.66 L98.866,4.66 C98.491,4.66 98.149,4.352 98.149,3.977 L98.149,0.972 C98.149,0.596 98.491,0.289 98.866,0.289 L102.178,0.289 C102.554,0.289 102.862,0.596 102.862,0.972 L102.862,3.977 C102.861,4.353 102.554,4.66 102.178,4.66 Z M102.075,26.481 L98.933,26.481 C98.558,26.481 98.25,26.14 98.25,25.764 L98.25,7.904 C98.25,7.529 98.558,7.221 98.933,7.221 L102.075,7.221 C102.451,7.221 102.759,7.529 102.759,7.904 L102.759,25.764 C102.759,26.14 102.451,26.481 102.075,26.481 Z" id="Shape"></path>
                <path d="M123.246,26.481 L120.104,26.481 C119.728,26.481 119.421,26.14 119.421,25.764 L119.421,14.632 C119.421,11.661 119.148,10.807 116.518,10.807 C115.357,10.807 114.094,11.285 112.66,12.036 L112.66,25.764 C112.66,26.14 112.352,26.481 111.976,26.481 L108.834,26.481 C108.459,26.481 108.151,26.14 108.151,25.764 L108.151,7.904 C108.151,7.529 108.459,7.221 108.834,7.221 L111.806,7.221 C112.181,7.221 112.489,7.529 112.489,7.904 L112.489,8.621 C114.469,7.357 115.767,6.982 118.021,6.982 C122.938,6.982 123.929,10.294 123.929,14.631 L123.929,25.763 C123.93,26.14 123.622,26.481 123.246,26.481 Z" id="Shape"></path>
                <path d="M145.44,10.329 L144.313,10.773 C144.86,11.558 145.167,12.31 145.167,13.505 L145.167,13.744 C145.167,18.013 142.23,19.959 137.074,19.959 C135.263,19.959 134.035,19.651 133.351,19.378 C132.942,19.651 132.771,19.959 132.771,20.266 C132.771,20.949 133.146,21.223 133.932,21.393 L137.961,22.35 C142.606,23.443 145.61,24.16 145.61,27.814 L145.61,28.053 C145.61,31.536 143.048,33.414 137.244,33.414 C131.712,33.414 128.774,31.331 128.774,27.746 L128.774,27.438 C128.774,26.038 129.423,24.672 130.516,23.682 C129.56,22.965 128.979,21.77 128.979,20.54 L128.979,20.506 C128.979,19.447 129.423,18.389 130.345,17.74 C129.321,16.681 128.945,15.452 128.945,13.744 L128.945,13.505 C128.945,10.09 131.165,7.221 137.073,7.221 L145.063,7.221 C145.576,7.221 145.986,7.631 145.986,8.143 L145.986,9.577 C145.987,10.09 145.851,10.158 145.44,10.329 Z M141.104,27.813 C141.104,27.062 140.661,26.618 137.075,25.764 L134.036,25.047 C133.523,25.764 133.182,26.208 133.182,27.437 L133.182,27.745 C133.182,29.145 134.036,29.999 137.246,29.999 C140.524,29.999 141.104,29.282 141.104,28.052 L141.104,27.813 Z M140.728,13.573 C140.728,11.934 140.011,10.67 137.075,10.67 C134.172,10.67 133.387,11.968 133.387,13.573 L133.387,13.846 C133.387,15.11 133.9,16.544 137.075,16.544 C139.909,16.544 140.728,15.554 140.728,13.846 L140.728,13.573 Z" id="Shape"></path>
                <path d="M16.715,66.276 C15.623,66.447 14.291,66.755 10.227,66.755 C5.788,66.755 2.339,65.56 2.339,59.754 L2.339,47.836 C2.339,42.031 5.787,40.836 10.227,40.836 C14.291,40.836 15.623,41.143 16.715,41.314 C17.228,41.382 17.399,41.553 17.399,42.031 L17.399,44.217 C17.399,44.592 17.091,44.9 16.715,44.9 L9.749,44.9 C7.769,44.9 7.051,45.583 7.051,47.837 L7.051,51.525 L16.306,51.525 C16.682,51.525 16.989,51.833 16.989,52.208 L16.989,54.667 C16.989,55.042 16.682,55.35 16.306,55.35 L7.051,55.35 L7.051,59.755 C7.051,62.009 7.769,62.692 9.749,62.692 L16.715,62.692 C17.091,62.692 17.399,63 17.399,63.376 L17.399,65.562 C17.398,66.037 17.228,66.208 16.715,66.276 Z" id="Shape"></path>
                <path d="M38.125,66.481 L34.231,66.481 C33.856,66.481 33.685,66.378 33.309,65.798 L29.416,59.787 L25.728,65.798 C25.352,66.378 25.182,66.481 24.806,66.481 L21.288,66.481 C21.015,66.481 20.878,66.31 20.878,66.105 C20.878,66.002 20.912,65.901 20.981,65.798 L27.094,56.543 L21.323,47.903 C21.289,47.835 21.255,47.766 21.255,47.698 C21.255,47.459 21.494,47.22 21.802,47.22 L25.695,47.22 C26.071,47.22 26.242,47.391 26.583,47.903 L30.032,53.23 L33.242,47.903 C33.618,47.288 33.789,47.22 34.164,47.22 L37.682,47.22 C37.955,47.22 38.092,47.391 38.092,47.596 C38.092,47.698 38.058,47.801 37.989,47.903 L32.354,56.508 L38.569,65.797 C38.603,65.865 38.637,65.933 38.637,66.035 C38.637,66.276 38.397,66.481 38.125,66.481 Z" id="Shape"></path>
                <path d="M52.874,66.311 C52.089,66.516 50.553,66.755 48.469,66.755 C44.031,66.755 40.684,64.023 40.684,58.456 L40.684,55.28 C40.684,49.714 44.031,46.982 48.469,46.982 C50.553,46.982 52.089,47.221 52.874,47.426 C53.455,47.563 53.592,47.767 53.592,48.314 L53.592,50.534 C53.592,50.876 53.319,51.046 52.977,51.046 C52.943,51.046 52.909,51.046 52.874,51.046 C51.509,50.876 50.688,50.807 48.469,50.807 C46.865,50.807 45.191,51.729 45.191,55.28 L45.191,58.456 C45.191,62.008 46.865,62.93 48.469,62.93 C50.689,62.93 51.509,62.862 52.874,62.691 C52.908,62.691 52.942,62.691 52.977,62.691 C53.319,62.691 53.592,62.862 53.592,63.204 L53.592,65.424 C53.592,65.969 53.455,66.174 52.874,66.311 Z" id="Shape"></path>
                <path d="M72.742,58.422 L61.609,58.422 L61.609,58.525 C61.609,60.505 62.429,62.862 65.708,62.862 C68.2,62.862 70.557,62.658 71.991,62.521 C72.025,62.521 72.059,62.521 72.094,62.521 C72.435,62.521 72.708,62.691 72.708,63.033 L72.708,65.287 C72.708,65.834 72.605,66.072 71.991,66.175 C69.771,66.585 68.439,66.756 65.366,66.756 C61.951,66.756 57.101,64.911 57.101,58.185 L57.101,55.658 C57.101,50.331 60.073,46.984 65.297,46.984 C70.556,46.984 73.425,50.569 73.425,55.658 L73.425,57.57 C73.426,58.115 73.221,58.422 72.742,58.422 Z M68.884,55.076 C68.884,52.412 67.415,50.876 65.298,50.876 C63.181,50.876 61.644,52.378 61.644,55.076 L61.644,55.213 L68.884,55.213 L68.884,55.076 Z" id="Shape"></path>
                <path d="M82.166,66.481 L78.99,66.481 C78.615,66.481 78.307,66.139 78.307,65.764 L78.307,41.176 C78.307,40.801 78.615,40.493 78.99,40.493 L82.166,40.493 C82.542,40.493 82.815,40.8 82.815,41.176 L82.815,65.764 C82.815,66.14 82.542,66.481 82.166,66.481 Z" id="Shape"></path>
                <path d="M92.307,66.481 L89.131,66.481 C88.756,66.481 88.448,66.139 88.448,65.764 L88.448,41.176 C88.448,40.801 88.756,40.493 89.131,40.493 L92.307,40.493 C92.683,40.493 92.956,40.8 92.956,41.176 L92.956,65.764 C92.956,66.14 92.683,66.481 92.307,66.481 Z" id="Shape"></path>
                <path d="M113.478,58.422 L102.345,58.422 L102.345,58.525 C102.345,60.505 103.165,62.862 106.444,62.862 C108.936,62.862 111.293,62.658 112.727,62.521 C112.761,62.521 112.795,62.521 112.83,62.521 C113.171,62.521 113.444,62.691 113.444,63.033 L113.444,65.287 C113.444,65.834 113.341,66.072 112.727,66.175 C110.507,66.585 109.175,66.756 106.102,66.756 C102.687,66.756 97.838,64.911 97.838,58.185 L97.838,55.658 C97.838,50.331 100.809,46.984 106.033,46.984 C111.292,46.984 114.161,50.569 114.161,55.658 L114.161,57.57 C114.161,58.115 113.956,58.422 113.478,58.422 Z M109.619,55.076 C109.619,52.412 108.15,50.876 106.033,50.876 C103.916,50.876 102.379,52.378 102.379,55.076 L102.379,55.213 L109.619,55.213 L109.619,55.076 Z" id="Shape"></path>
                <path d="M133.965,66.481 L130.823,66.481 C130.447,66.481 130.14,66.139 130.14,65.764 L130.14,54.631 C130.14,51.66 129.867,50.806 127.237,50.806 C126.076,50.806 124.813,51.284 123.379,52.035 L123.379,65.764 C123.379,66.139 123.071,66.481 122.695,66.481 L119.553,66.481 C119.178,66.481 118.87,66.139 118.87,65.764 L118.87,47.904 C118.87,47.529 119.178,47.221 119.553,47.221 L122.525,47.221 C122.9,47.221 123.208,47.529 123.208,47.904 L123.208,48.621 C125.188,47.357 126.486,46.982 128.74,46.982 C133.657,46.982 134.648,50.294 134.648,54.631 L134.648,65.764 C134.648,66.14 134.341,66.481 133.965,66.481 Z" id="Shape"></path>
                <path d="M151.446,66.311 C150.661,66.516 149.125,66.755 147.041,66.755 C142.603,66.755 139.256,64.023 139.256,58.456 L139.256,55.28 C139.256,49.714 142.603,46.982 147.041,46.982 C149.125,46.982 150.661,47.221 151.446,47.426 C152.027,47.563 152.164,47.767 152.164,48.314 L152.164,50.534 C152.164,50.876 151.891,51.046 151.549,51.046 C151.515,51.046 151.481,51.046 151.446,51.046 C150.081,50.876 149.26,50.807 147.041,50.807 C145.437,50.807 143.763,51.729 143.763,55.28 L143.763,58.456 C143.763,62.008 145.437,62.93 147.041,62.93 C149.261,62.93 150.081,62.862 151.446,62.691 C151.48,62.691 151.514,62.691 151.549,62.691 C151.891,62.691 152.164,62.862 152.164,63.204 L152.164,65.424 C152.164,65.969 152.027,66.174 151.446,66.311 Z" id="Shape"></path>
                <path d="M171.314,58.422 L160.181,58.422 L160.181,58.525 C160.181,60.505 161.001,62.862 164.28,62.862 C166.772,62.862 169.129,62.658 170.563,62.521 C170.597,62.521 170.631,62.521 170.666,62.521 C171.007,62.521 171.28,62.691 171.28,63.033 L171.28,65.287 C171.28,65.834 171.177,66.072 170.563,66.175 C168.343,66.585 167.011,66.756 163.938,66.756 C160.523,66.756 155.673,64.911 155.673,58.185 L155.673,55.658 C155.673,50.331 158.645,46.984 163.869,46.984 C169.128,46.984 171.997,50.569 171.997,55.658 L171.997,57.57 C171.998,58.115 171.793,58.422 171.314,58.422 Z M167.456,55.076 C167.456,52.412 165.987,50.876 163.87,50.876 C161.753,50.876 160.216,52.378 160.216,55.076 L160.216,55.213 L167.456,55.213 L167.456,55.076 Z" id="Shape"></path>
                <path d="M16.715,84.899 L9.749,84.899 C7.769,84.899 7.051,85.582 7.051,87.836 L7.051,91.524 L16.306,91.524 C16.682,91.524 16.989,91.831 16.989,92.207 L16.989,94.666 C16.989,95.041 16.682,95.349 16.306,95.349 L7.051,95.349 L7.051,105.799 C7.051,106.174 6.744,106.482 6.368,106.482 L3.021,106.482 C2.645,106.482 2.338,106.174 2.338,105.799 L2.338,87.836 C2.338,82.03 5.786,80.835 10.226,80.835 C14.29,80.835 15.622,81.143 16.714,81.314 C17.227,81.382 17.398,81.553 17.398,82.031 L17.398,84.217 C17.398,84.592 17.091,84.899 16.715,84.899 Z" id="Shape"></path>
                <path d="M31.739,90.807 C29.894,90.807 28.461,91.286 27.026,92.036 L27.026,105.765 C27.026,106.14 26.718,106.482 26.342,106.482 L23.2,106.482 C22.825,106.482 22.517,106.14 22.517,105.765 L22.517,87.905 C22.517,87.529 22.825,87.222 23.2,87.222 L26.172,87.222 C26.547,87.222 26.855,87.529 26.855,87.905 L26.855,88.622 C28.528,87.325 30.373,86.983 31.739,86.983 C32.114,86.983 32.422,87.291 32.422,87.666 L32.422,90.125 C32.422,90.5 32.114,90.807 31.739,90.807 Z" id="Shape"></path>
                <path d="M48.943,106.481 L46.04,106.481 C45.665,106.481 45.357,106.173 45.357,105.798 L45.357,105.251 C43.786,106.207 42.181,106.754 40.542,106.754 C37.708,106.754 34.635,105.661 34.635,101.051 L34.635,100.914 C34.635,97.021 37.025,95.006 42.967,95.006 L45.118,95.006 L45.118,93.504 C45.118,91.284 44.128,90.737 42.113,90.737 C39.927,90.737 37.674,90.874 36.547,91.01 C36.479,91.01 36.41,91.01 36.376,91.01 C36.034,91.01 35.762,90.907 35.762,90.43 L35.762,88.244 C35.762,87.868 35.966,87.629 36.41,87.526 C37.776,87.254 39.757,86.98 42.113,86.98 C46.962,86.98 49.626,89.131 49.626,93.502 L49.626,105.796 C49.626,106.174 49.318,106.481 48.943,106.481 Z M45.118,98.013 L42.967,98.013 C39.86,98.013 39.176,99.003 39.176,100.915 L39.176,101.052 C39.176,102.725 39.928,103.169 41.635,103.169 C42.864,103.169 44.128,102.759 45.118,102.213 L45.118,98.013 Z" id="Shape"></path>
                <path d="M78.753,106.481 L75.611,106.481 C75.235,106.481 74.928,106.139 74.928,105.764 L74.928,94.153 C74.928,91.524 74.381,90.841 72.469,90.841 C71.82,90.841 70.523,91.046 69.293,91.695 C69.396,92.446 69.43,93.299 69.43,94.153 L69.43,105.764 C69.43,106.139 69.122,106.481 68.746,106.481 L65.604,106.481 C65.229,106.481 64.921,106.139 64.921,105.764 L64.921,94.153 C64.921,91.524 64.477,90.841 62.565,90.841 C61.848,90.841 60.824,91.217 59.423,91.968 L59.423,105.765 C59.423,106.14 59.115,106.482 58.739,106.482 L55.6,106.482 C55.225,106.482 54.917,106.14 54.917,105.765 L54.917,87.905 C54.917,87.529 55.225,87.222 55.6,87.222 L58.572,87.222 C58.947,87.222 59.255,87.529 59.255,87.905 L59.255,88.622 C60.69,87.7 62.123,86.983 64.139,86.983 C66.085,86.983 67.349,87.563 68.134,88.519 C69.875,87.563 71.412,86.983 73.769,86.983 C78.413,86.983 79.438,90.159 79.438,94.154 L79.438,105.765 C79.437,106.14 79.129,106.481 78.753,106.481 Z" id="Shape"></path>
                <path d="M99.786,98.422 L88.653,98.422 L88.653,98.525 C88.653,100.505 89.473,102.862 92.752,102.862 C95.244,102.862 97.601,102.658 99.035,102.521 C99.069,102.521 99.103,102.521 99.138,102.521 C99.479,102.521 99.752,102.691 99.752,103.033 L99.752,105.287 C99.752,105.834 99.649,106.072 99.035,106.175 C96.815,106.585 95.483,106.756 92.41,106.756 C88.995,106.756 84.146,104.911 84.146,98.185 L84.146,95.658 C84.146,90.331 87.117,86.984 92.341,86.984 C97.6,86.984 100.469,90.57 100.469,95.658 L100.469,97.57 C100.47,98.115 100.265,98.422 99.786,98.422 Z M95.928,95.075 C95.928,92.412 94.459,90.875 92.342,90.875 C90.225,90.875 88.688,92.378 88.688,95.075 L88.688,95.212 L95.928,95.212 L95.928,95.075 Z" id="Shape"></path>
                <path d="M130.04,88.007 L126.933,103.716 C126.523,105.765 125.977,106.584 123.894,106.584 L122.972,106.584 C121.127,106.584 120.171,105.696 119.728,103.92 L117.03,93.471 C116.996,93.334 116.996,93.3 116.927,93.3 C116.858,93.3 116.859,93.334 116.824,93.471 L114.127,103.92 C113.683,105.696 112.727,106.584 110.883,106.584 L109.961,106.584 C107.877,106.584 107.331,105.765 106.921,103.716 L103.814,88.007 C103.814,87.973 103.814,87.939 103.814,87.904 C103.814,87.528 104.122,87.221 104.498,87.221 L107.81,87.221 C108.151,87.221 108.39,87.528 108.424,87.835 L110.575,102.28 C110.609,102.588 110.678,102.758 110.746,102.758 C110.814,102.758 110.917,102.622 110.985,102.28 L113.819,90.805 C114.161,89.474 114.57,89.337 115.731,89.337 L118.122,89.337 C119.283,89.337 119.693,89.474 120.034,90.805 L122.869,102.28 C122.937,102.622 123.04,102.758 123.108,102.758 C123.175,102.758 123.244,102.588 123.278,102.28 L125.429,87.835 C125.463,87.527 125.702,87.221 126.044,87.221 L129.356,87.221 C129.731,87.221 130.039,87.528 130.039,87.904 C130.04,87.938 130.04,87.973 130.04,88.007 Z" id="Shape"></path>
                <path d="M141.062,106.755 C135.701,106.755 132.9,103.135 132.9,98.252 L132.9,95.485 C132.9,90.602 135.701,86.982 141.062,86.982 C146.423,86.982 149.224,90.602 149.224,95.485 L149.224,98.252 C149.225,103.135 146.424,106.755 141.062,106.755 Z M144.717,95.485 C144.717,92.685 143.453,90.875 141.063,90.875 C138.673,90.875 137.409,92.686 137.409,95.485 L137.409,98.252 C137.409,101.052 138.673,102.861 141.063,102.861 C143.453,102.861 144.717,101.051 144.717,98.252 L144.717,95.485 Z" id="Shape"></path>
                <path d="M163.155,90.807 C161.31,90.807 159.877,91.286 158.442,92.036 L158.442,105.765 C158.442,106.14 158.134,106.482 157.758,106.482 L154.616,106.482 C154.241,106.482 153.933,106.14 153.933,105.765 L153.933,87.905 C153.933,87.529 154.241,87.222 154.616,87.222 L157.588,87.222 C157.963,87.222 158.271,87.529 158.271,87.905 L158.271,88.622 C159.944,87.325 161.789,86.983 163.155,86.983 C163.53,86.983 163.838,87.291 163.838,87.666 L163.838,90.125 C163.838,90.5 163.53,90.807 163.155,90.807 Z" id="Shape"></path>
                <path d="M182.618,106.481 L178.452,106.481 C178.076,106.481 177.667,106.105 177.462,105.798 L172.101,98.012 L172.101,105.764 C172.101,106.139 171.793,106.481 171.417,106.481 L168.275,106.481 C167.9,106.481 167.592,106.139 167.592,105.764 L167.592,81.176 C167.592,80.801 167.9,80.493 168.275,80.493 L171.417,80.493 C171.793,80.493 172.101,80.801 172.101,81.176 L172.101,95.416 L177.94,87.63 C178.179,87.323 178.521,87.221 178.726,87.221 L182.55,87.221 C182.892,87.221 183.063,87.358 183.063,87.596 C183.063,87.699 183.029,87.801 182.926,87.938 L176.062,96.373 L182.995,105.799 C183.063,105.902 183.098,105.969 183.098,106.071 C183.097,106.276 182.892,106.481 182.618,106.481 Z" id="Shape"></path>
            </g>
        </g>
    </g>
</svg>