<svg height='200' width='200'  fill="#f85220" xmlns="http://www.w3.org/2000/svg" xmlns:xlink="http://www.w3.org/1999/xlink" version="1.1" x="0px" y="0px" viewBox="0 0 52 52" style="enable-background:new 0 0 52 52;" xml:space="preserve"><style type="text/css">
	.st0{fill:#000000;}
</style><g><path d="M31.9893188,36.2300911c-0.3134766,0.0947266-0.6005859,0.1386719-0.8896484,0.1386719   c-0.5185547,0-1.0253906-0.1328125-1.4648438-0.3847656l-3.6347656-1.9228516l-3.6943359,1.9550781   c-0.4179688,0.2265625-0.9091797,0.3496094-1.4052734,0.3496094c-0.3037109,0-0.6074219-0.0449219-0.8994141-0.1357422   c-0.6759033-0.2163086-1.2357788-0.6662598-1.6123047-1.246582v15.0151367c0,0.4208984,0.2636719,0.796875,0.6601563,0.9404297   c0.3945313,0.1416016,0.8388672,0.0234375,1.1083984-0.3007813l5.8408203-7.0166016l5.8417969,7.0166016   c0.1933594,0.2324219,0.4775391,0.3603516,0.7685547,0.3603516c0.1142578,0,0.2285156-0.0195313,0.3398438-0.0595703   c0.3964844-0.1435547,0.6601563-0.5195313,0.6601563-0.9404297V34.9832649   C33.2481689,35.5576057,32.6781616,36.0182991,31.9893188,36.2300911z"></path><path d="M43.4899902,17.6788197c0-0.2700195-0.1099854-0.5200195-0.3099976-0.710083l-3.75-3.6500244l0.8900146-5.1599121   c0.0499878-0.2600093-0.0100098-0.5400386-0.1700439-0.7600093C39.9899902,7.1788201,39.75,7.0386834,39.4799805,6.9987664   l-5.1799927-0.7399902l-2.3099976-4.7000732c-0.1099854-0.2399902-0.3300171-0.4299316-0.5900269-0.5100098   c-0.25-0.0799561-0.5299683-0.0599366-0.7699585,0.0700684L26,3.5687127l-4.6300049-2.4499512   c-0.2399902-0.1300049-0.5200195-0.1500245-0.7800293-0.0700684C20.3399658,1.1287713,20.1199951,1.3187127,20,1.5587029   l-2.2999878,4.7000732l-5.1800537,0.7399902C12.25,7.0386834,12.0100098,7.1788201,11.8499756,7.3987908   c-0.1599731,0.2199707-0.2199707,0.5-0.1799927,0.7600093l0.9000244,5.1599121l-3.7600098,3.6500244   c-0.1900024,0.1900635-0.2999878,0.4400635-0.2999878,0.710083c0,0.2698975,0.1099854,0.5299072,0.2999878,0.7199707   l3.7600098,3.6499023l-0.9000244,5.1600342c-0.039978,0.2600098,0.0200195,0.5400391,0.1799927,0.7600098   c0.1600342,0.210083,0.4000244,0.3599854,0.6699829,0.4000244l5.1800537,0.7299805L20,33.8087044   c0.1199951,0.2399902,0.3399658,0.4300537,0.5899658,0.5100098c0.2600098,0.0800781,0.5400391,0.0600586,0.7800293-0.0699463   L26,31.7986927l4.6300049,2.4500751c0.1399536,0.0799561,0.2999878,0.1199951,0.4699707,0.1199951   c0.1000366,0,0.2000122-0.0200195,0.2999878-0.0500488c0.2600098-0.0799561,0.4800415-0.2700195,0.5900269-0.5100098   l2.2999878-4.7099628l5.1900024-0.7299805c0.2700195-0.0400391,0.5100098-0.1899414,0.6699829-0.4000244   c0.1600342-0.2199707,0.2200317-0.5,0.1700439-0.7600098l-0.8900146-5.1600342l3.75-3.6499023   C43.3800049,18.2087269,43.4899902,17.9487171,43.4899902,17.6788197z M26,24.3687611   c-3.6900024,0-6.6900024-3-6.6900024-6.6899414c0-3.6800537,3-6.6800537,6.6900024-6.6800537s6.6799927,3,6.6799927,6.6800537   C32.6799927,21.3687611,29.6900024,24.3687611,26,24.3687611z"></path></g></svg>
