<svg height='200' width='200'  fill="#f85220" xmlns="http://www.w3.org/2000/svg" xmlns:sodipodi="http://sodipodi.sourceforge.net/DTD/sodipodi-0.dtd" viewBox="0 0 100 100" x="0px" y="0px"><path d="m 17.019796,51.831926 c 1.354611,0 2.608028,1.227625 2.607058,2.582228 -9.69e-4,1.353258 -1.253798,2.582228 -2.607058,2.582228 -1.35325,0 -2.581258,-1.22897 -2.582223,-2.582228 -9.65e-4,-1.354603 1.227622,-2.582228 2.582223,-2.582228 z"></path><path d="m 13.692705,57.815742 6.679026,0 4.692696,9.286083 -2.309106,1.166967 -2.38359,-4.767189 0,17.876963 -3.053984,0 0,-11.197924 -0.571067,0 0,11.197924 -3.053975,0 0,-17.876963 -2.408433,4.767189 L 9,67.101825 z"></path><path d="m 78.818681,14.451283 c 0.85254,0 1.64146,0.77262 1.640787,1.625159 -6.73e-4,0.851688 -0.789095,1.625158 -1.640787,1.625158 -0.851687,0 -1.62449,-0.77347 -1.625158,-1.625158 -6.76e-4,-0.852539 0.772623,-1.625159 1.625158,-1.625159 z"></path><path d="m 76.724729,18.217276 4.203534,0 2.953414,5.844319 -1.453267,0.734447 -1.500147,-3.000293 0,11.251097 -1.922061,0 0,-7.047562 -0.35941,0 0,7.047562 -1.922063,0 0,-11.251097 -1.515775,3.000293 -1.437639,-0.734447 z"></path><path d="m 54.17202,59.071707 c 1.647182,0 3.171319,1.492774 3.170143,3.139953 -0.0012,1.64554 -1.524605,3.139951 -3.170143,3.139951 -1.645537,0 -3.138779,-1.494411 -3.139953,-3.139951 -0.0012,-1.647179 1.492771,-3.139953 3.139953,-3.139953 z"></path><path d="m 50.126315,66.347942 8.121603,0 5.706257,11.291744 -2.807841,1.419014 -2.898416,-5.796834 0,21.738134 -3.713597,0 0,-13.616517 -0.694414,0 0,13.616517 -3.713592,0 0,-21.738134 -2.928611,5.796834 -2.77765,-1.419014 z"></path><path d="m 81.869138,49.993928 c 1.560033,0 3.003601,1.413794 3.002415,2.97382 -0.0012,1.558479 -1.443939,2.973823 -3.002415,2.973823 -1.558474,0 -2.972637,-1.415344 -2.973822,-2.973823 -0.0012,-1.560026 1.41379,-2.97382 2.973822,-2.97382 z"></path><path d="m 78.037487,56.885186 7.6919,0 5.404347,10.694314 -2.659283,1.343936 -2.745064,-5.490131 0,20.587996 -3.517116,0 0,-12.896084 -0.657672,0 0,12.896084 -3.517112,0 0,-20.587996 -2.773662,5.490131 -2.630689,-1.343936 z"></path><path d="m 35.972491,39.907396 c 1.235721,0 2.379162,1.119883 2.378249,2.355599 -9.12e-4,1.234489 -1.143761,2.355599 -2.378249,2.355599 -1.234484,0 -2.354688,-1.12111 -2.3556,-2.355599 -9.13e-4,-1.235716 1.119881,-2.355599 2.3556,-2.355599 z"></path><path d="m 32.937395,45.366045 6.092846,0 4.280847,8.471092 -2.106449,1.064549 -2.174398,-4.348799 0,16.307996 -2.78595,0 0,-10.215142 -0.520951,0 0,10.215142 -2.785945,0 0,-16.307996 -2.197051,4.348799 -2.083799,-1.064549 z"></path><path d="m 66.001567,30.001461 c 1.134404,0 2.184105,1.028063 2.183256,2.162462 -8.49e-4,1.133273 -1.049984,2.162463 -2.183256,2.162463 -1.133268,0 -2.161614,-1.02919 -2.162462,-2.162463 -8.48e-4,-1.134399 1.02806,-2.162462 2.162462,-2.162462 z"></path><path d="m 63.215321,35.012552 5.59329,0 3.929859,7.776545 -1.93374,0.977265 -1.996119,-3.992239 0,14.970897 -2.557527,0 0,-9.377598 -0.478238,0 0,9.377598 -2.557525,0 0,-14.970897 -2.016914,3.992239 -1.912947,-0.977265 z"></path><path d="m 48.849608,17.947943 c 1.054699,0 2.030648,0.955831 2.029859,2.010529 -7.88e-4,1.053647 -0.976212,2.010526 -2.029859,2.010526 -1.053646,0 -2.00974,-0.956879 -2.010528,-2.010526 -7.89e-4,-1.054698 0.955829,-2.010529 2.010528,-2.010529 z"></path><path d="m 46.259122,22.606953 5.200305,0 3.653747,7.230165 -1.797875,0.908601 -1.855872,-3.711743 0,13.919041 -2.377835,0 0,-8.718726 -0.444637,0 0,8.718726 -2.377833,0 0,-13.919041 -1.875205,3.711743 -1.778543,-0.908601 z"></path><path d="m 26.039744,14.346963 c 0.970816,0 1.869184,0.879808 1.868418,1.850622 -7.66e-4,0.969844 -0.898568,1.85062 -1.868418,1.85062 -0.969844,0 -1.849856,-0.880776 -1.850621,-1.85062 -7.66e-4,-0.970814 0.879812,-1.850622 1.850621,-1.850622 z"></path><path d="m 23.655291,18.635422 4.786704,0 3.363149,6.65512 -1.654883,0.836339 -1.708266,-3.416533 0,12.811994 -2.188715,0 0,-8.025289 -0.409273,0 0,8.025289 -2.188716,0 0,-12.811994 -1.726062,3.416533 -1.637087,-0.836339 z"></path><path d="m 62.526152,5 c 0.738046,0 1.421016,0.6688586 1.420433,1.4069035 -5.83e-4,0.7373088 -0.683121,1.4069035 -1.420433,1.4069035 -0.737307,0 -1.406325,-0.6695947 -1.406903,-1.4069035 C 61.118664,5.6688586 61.788111,5 62.526152,5 z"></path><path d="m 60.713413,8.2602296 3.639009,0 2.556778,5.0594414 -1.258098,0.635811 -1.29868,-2.59736 0,9.740101 -1.663933,0 0,-6.10109 -0.311141,0 0,6.10109 -1.663935,0 0,-9.740101 -1.31221,2.59736 -1.244567,-0.635811 z"></path></svg>
